<svg xmlns="http://www.w3.org/2000/svg" version="1.1" xmlns:xlink="http://www.w3.org/1999/xlink" xmlns:svgjs="http://svgjs.dev/svgjs" width="1000" height="999" viewBox="0 0 1000 999"><g transform="matrix(1,0,0,1,-0.215743440233382,-0.21552769679306039)"><svg viewBox="0 0 343 343" data-background-color="#ffffff" preserveAspectRatio="xMidYMid meet" height="999" width="1000" xmlns="http://www.w3.org/2000/svg" xmlns:xlink="http://www.w3.org/1999/xlink"><g id="tight-bounds" transform="matrix(1,0,0,1,0.0740000000000407,0.07400000000001228)"><svg viewBox="0 0 342.85155851775386 342.85155851775386" height="342.85155851775386" width="342.85155851775386"><g><svg></svg></g><g><svg viewBox="0 0 342.85155851775386 342.85155851775386" height="342.85155851775386" width="342.85155851775386"><g><path d="M0 171.426c0-94.676 76.75-171.426 171.426-171.426 94.676 0 171.426 76.75 171.426 171.426 0 94.676-76.75 171.426-171.426 171.426-94.676 0-171.426-76.75-171.426-171.426zM171.426 332.496c88.957 0 161.07-72.114 161.07-161.07 0-88.957-72.114-161.07-161.07-161.07-88.957 0-161.07 72.114-161.07 161.07 0 88.957 72.114 161.07 161.07 161.07z" data-fill-palette-color="tertiary" fill="#471aa0" stroke="transparent"></path><ellipse rx="164.56874808852186" ry="164.56874808852186" cx="171.42577925887693" cy="171.42577925887693" fill="#471aa0" stroke="transparent" stroke-width="0" fill-opacity="1" data-fill-palette-color="tertiary"></ellipse></g><g transform="matrix(1,0,0,1,64.84655864529837,114.00966290834793)"><svg viewBox="0 0 213.1584412271571 114.83223270105799" height="114.83223270105799" width="213.1584412271571"><g><svg viewBox="0 0 213.1584412271571 114.83223270105799" height="114.83223270105799" width="213.1584412271571"><g><svg viewBox="0 0 213.1584412271571 114.83223270105799" height="114.83223270105799" width="213.1584412271571"><g><svg viewBox="0 0 213.1584412271571 114.83223270105799" height="114.83223270105799" width="213.1584412271571"><g id="textblocktransform"><svg viewBox="0 0 213.1584412271571 114.83223270105799" height="114.83223270105799" width="213.1584412271571" id="textblock"><g><svg viewBox="0 0 213.1584412271571 114.83223270105799" height="114.83223270105799" width="213.1584412271571"><g transform="matrix(1,0,0,1,0,0)"><svg width="213.1584412271571" viewBox="0.10000000149011612 -32.349998474121094 60.05000305175781 32.349998474121094" height="114.83223270105799" data-palette-color="#ffffff"><path d="M22-32.35L30.85 0 20.7 0 19.8-5.35 19.75-5.5 14.85-5.6 10.75-5.4 9.9 0 0.1 0 9.9-32.35 22-32.35ZM15.45-12.75L18.25-12.8 16.05-23.4 15.45-23.4 12.65-12.8 15.45-12.75ZM60.15-32.35L50.35 0 38.25 0 29.4-32.35 39.55-32.35 40.45-27 44.2-8.95 44.8-8.95 49.4-26.4 50.35-32.35 60.15-32.35Z" opacity="1" transform="matrix(1,0,0,1,0,0)" fill="#ffffff" class="undefined-text-0" data-fill-palette-color="quaternary" id="text-0"></path></svg></g></svg></g></svg></g></svg></g><g></g></svg></g></svg></g></svg></g></svg></g><defs></defs></svg><rect width="342.85155851775386" height="342.85155851775386" fill="none" stroke="none" visibility="hidden"></rect></g></svg></g></svg>