<?xml version="1.0" encoding="UTF-8"?>
<svg id="a" data-name="Layer 1" xmlns="http://www.w3.org/2000/svg" width="1366" height="400" viewBox="0 0 1366 400">
  <path d="M186.043,258.653c17.695-.88,32.149-4.971,43.364-12.28,11.215-7.295,17.437-17.244,18.66-29.839.651-6.73-.722-12.288-4.113-16.686-3.39-4.399-7.667-7.796-12.831-10.192-5.171-2.396-12.073-5.028-20.72-7.889-7.174-2.296-12.731-4.306-16.672-6.022-3.948-1.716-7.167-3.948-9.656-6.695-2.496-2.739-3.54-6.137-3.147-10.192.586-6.087,3.726-10.943,9.42-14.576,5.693-3.626,13.611-5.693,23.76-6.201,7.195-.358,13.096.522,17.709,2.625,4.606,2.11,6.695,5.4,6.258,9.884-.079.858-.451,2.89-1.116,6.115-.522,1.724-.88,3.598-1.073,5.629-.229,2.346.608,4.327,2.503,5.929,1.902,1.602,4.384,2.332,7.453,2.174,4.363-.215,7.832-2.088,10.407-5.614,2.568-3.526,4.184-8.654,4.835-15.377.665-6.83-.937-12.488-4.785-16.965-3.848-4.484-9.262-7.689-16.236-9.627-6.973-1.938-14.769-2.696-23.381-2.267-11.558.579-21.779,2.739-30.648,6.473-8.876,3.733-15.878,8.704-20.992,14.905-5.121,6.201-8.053,13.146-8.804,20.827-.708,7.367.73,13.425,4.313,18.188,3.59,4.756,8.104,8.44,13.546,11.036,5.443,2.596,12.552,5.271,21.328,8.018,6.823,2.21,12.102,4.098,15.828,5.665,3.719,1.566,6.752,3.598,9.091,6.079,2.346,2.489,3.34,5.543,2.99,9.169-.572,5.872-3.841,10.578-9.82,14.111-5.979,3.54-13.983,5.557-24.01,6.058-9.677.479-17.08-.322-22.222-2.403-5.143-2.074-7.474-5.522-7.009-10.321.114-1.173.308-2.303.594-3.376.279-1.073.436-1.831.479-2.253.508-1.624.865-3.497,1.073-5.629.229-2.346-.586-4.22-2.446-5.615-1.867-1.395-4.384-2.017-7.567-1.852-4.37.215-7.825,1.924-10.364,5.135-2.539,3.204-4.098,7.746-4.67,13.611-1.073,11.1,2.847,19.111,11.765,24.032,8.912,4.921,21.214,6.988,36.906,6.208" fill="#192843" stroke-width="0"/>
  <path d="M735.901,105.903c-2.811-4.091-6.759-6.094-11.83-6.022-10.5.157-19.883,7.724-28.159,22.68-8.275,14.963-14.855,32.493-19.747,52.598-8.733,1.087-16.887,3.991-24.461,8.711-7.567,4.728-13.833,10.728-18.796,18.009-.322.465-.608.944-.915,1.416-5.729,1.23-10.786,2.01-15.12,2.324.136-8.161-2.167-14.991-6.916-20.484-4.749-5.486-11.608-8.168-20.577-8.032-7.31.114-14.212,1.996-20.699,5.643s-11.851,8.654-16.107,15.02c-1.574,2.36-2.854,4.871-3.991,7.453-4.249.808-8.118,1.366-11.508,1.609.136-8.161-2.174-14.991-6.923-20.484-4.749-5.493-11.608-8.168-20.57-8.032-7.317.114-14.212,1.988-20.699,5.643-6.487,3.648-11.859,8.654-16.114,15.02-2.203,3.304-3.962,6.845-5.307,10.607-4.384.515-8.425.808-12.095.865-1.416.021-2.654-.014-3.698-.1-3.276-.164-6.094-.229-8.454-.193-1.295.021-2.875.837-4.735,2.453-1.867,1.623-3.497,3.497-4.899,5.643-1.402,2.139-2.131,3.898-2.196,5.278.987,8.568,1.588,16.722,1.802,24.446.215,7.732-.222,15.742-1.316,24.025-1.459,11.043-3.955,16.586-7.496,16.643-1.888.029-2.482-5.715-1.788-17.223.694-11.508,1.767-22.73,3.211-33.666,1.037-7.853,2.832-16.994,5.386-27.415,37.034-29.918,57.197-57.347,60.487-82.301.994-7.539.222-13.518-2.31-17.931-2.539-4.406-6.58-6.573-12.123-6.487-10.264.15-20.577,7.174-30.948,21.049-10.364,13.883-19.383,31.348-27.05,52.39-6.072,16.672-10.557,33.136-13.504,49.394-3.397,3.083-6.251,5.493-8.533,7.209-3.526,2.646-6.416,3.991-8.654,4.02-1.416.021-2.503-.436-3.262-1.38-.758-.937-1.037-2.21-.822-3.798.629-4.785,3.104-13.296,7.431-25.548,2.875-8.411,4.463-13.739,4.756-15.964.494-3.719-2.153-5.536-7.932-5.443-2.711.036-5.336.293-7.868.751-.286-2.324-.808-3.934-1.574-4.828-.765-.887-2.446-1.309-5.042-1.273-8.139.129-16.143,2.553-24.003,7.281-7.868,4.728-14.483,10.921-19.848,18.582-5.142,7.331-8.311,15.048-9.555,23.145-3.347,2.353-6.895,4.449-10.664,6.244-7.224,3.455-13.489,5.214-18.796,5.293-8.261.129-13.539-2.231-15.842-7.074,14.326-3.29,24.754-7.603,31.291-12.946,6.53-5.343,10.278-11.68,11.251-19.011.823-6.265-.586-11.193-4.227-14.798-3.648-3.598-8.89-5.35-15.735-5.243-7.667.114-14.784,2.081-21.35,5.886-6.566,3.812-11.973,8.897-16.229,15.263-4.263,6.373-6.866,13.217-7.832,20.548-1.395,10.507.937,18.739,6.981,24.69,6.037,5.951,15.256,8.826,27.644,8.64,9.083-.136,17.866-2.282,26.363-6.437,3.19-1.559,6.129-3.169,8.826-4.821.615,1.259,1.337,2.446,2.21,3.54,3.726,4.713,9.255,7.009,16.565,6.902,9.319-.143,17.638-4.721,24.947-13.732,1.109,4.12,3.126,7.345,6.051,9.684,2.932,2.346,6.344,3.483,10.235,3.426,5.071-.079,10.564-2.017,16.486-5.815,1.266-.815,2.525-1.688,3.777-2.582-2.01,18.06-2.06,31.835-.15,41.312,2.167,10.779,7.496,16.1,15.993,15.971,6.723-.1,12.545-3.211,17.473-9.327,4.928-6.115,8.154-14.905,9.663-26.37.687-5.207,1.059-11.808,1.116-19.812.057-7.996-.25-15.277-.916-21.836,5.185.873,9.191,1.287,12.023,1.244,2.375-.036,4.556-.186,6.573-.443.186,3.333.794,6.523,1.938,9.534,1.924,5.057,5.185,9.091,9.791,12.095s10.449,4.449,17.53,4.341c8.375-.122,16.214-2.918,23.531-8.382,7.317-5.457,12.681-12.667,16.1-21.621,3.755-.2,7.381-.608,10.914-1.173-.272,4.813.336,9.334,1.931,13.532,1.924,5.064,5.185,9.091,9.799,12.094,4.606,3.004,10.449,4.449,17.523,4.341,8.375-.122,16.221-2.918,23.538-8.382,7.31-5.457,12.674-12.667,16.1-21.621,3.898-.2,7.66-.629,11.315-1.23-.315,1.452-.594,2.918-.794,4.406-1.023,7.753.479,14.011,4.499,18.775,4.02,4.756,9.634,7.081,16.829,6.973,4.713-.071,8.983-.98,12.81-2.739,3.819-1.752,8.304-5.157,13.446-10.213l.093.637c.987,4.964,2.339,8.332,4.048,10.106s4.391,2.639,8.046,2.582c6.487-.1,10.049-2.539,10.678-7.317.2-1.481.15-2.911-.136-4.284-1.359-8.461-2.11-17.03-2.26-25.72,12.688-16.722,23.245-32.936,31.677-48.643s13.418-29.396,14.963-41.076c1.102-8.382.25-14.626-2.568-18.718M449.602,155.14c4.47-10.714,8.697-19.34,12.681-25.863,3.984-6.523,7.038-9.799,9.155-9.834,2.954-.043,3.998,3.176,3.147,9.648-1.33,9.133-5.214,18.968-11.665,29.503-6.459,10.535-15.041,20.713-25.755,30.512,3.812-11.923,7.953-23.245,12.438-33.966M274.379,220.976c.858-6.473,3.09-12.023,6.702-16.629,3.612-4.613,7.596-6.952,11.966-7.024,2.117-.029,3.719.558,4.799,1.759,1.073,1.202,1.481,2.811,1.216,4.828-.522,3.934-2.982,7.417-7.381,10.442-4.406,3.04-10.185,5.35-17.344,6.945l.043-.322ZM364.347,224.381c-1.666,4.585-3.862,8.275-6.58,11.072-2.725,2.796-5.386,4.213-7.982,4.248-2.596.043-4.527-.722-5.786-2.296-1.266-1.566-1.681-3.998-1.244-7.288.78-5.951,2.768-11.594,5.944-16.944,3.176-5.343,7.074-9.67,11.687-12.974,4.613-3.297,9.412-5.042,14.376-5.221l-10.414,29.403ZM507.829,232.384c-3.14,2.804-6.594,4.234-10.371,4.291-3.419.05-6.194-1.445-8.325-4.484-2.131-3.04-2.804-7.481-2.031-13.325.98-7.431,3.297-13.21,6.966-17.352,3.662-4.127,7.86-6.237,12.574-6.308l.887-.014c-.579,1.709-.98,3.412-1.202,5.107-.536,4.041-.064,7.846,1.402,11.422,1.473,3.583,3.891,6.459,7.252,8.633-1.638,5.221-4.02,9.227-7.152,12.03M587.627,231.176c-3.133,2.804-6.587,4.234-10.364,4.291-3.426.05-6.201-1.445-8.325-4.484-2.131-3.04-2.811-7.481-2.038-13.318.98-7.438,3.304-13.217,6.966-17.352,3.669-4.134,7.86-6.244,12.581-6.315l.88-.014c-.572,1.709-.973,3.412-1.202,5.107-.529,4.041-.064,7.846,1.409,11.422,1.466,3.583,3.884,6.459,7.245,8.633-1.631,5.221-4.012,9.226-7.152,12.03M671.574,199.226c-1.094,8.282-1.559,16.293-1.402,24.024-4.027,4.62-7.231,7.739-9.627,9.362-2.396,1.631-4.771,2.46-7.124,2.496-5.901.086-8.34-3.741-7.317-11.494.966-7.324,3.977-14.047,9.019-20.162,5.049-6.122,10.929-10.078,17.638-11.873-.358,1.81-.751,4.356-1.187,7.646M722.276,128.204c-2.103,15.928-11.387,36.734-27.844,62.411,3.505-18.489,7.796-35.611,12.874-51.375,5.085-15.756,9.341-23.667,12.76-23.717,1.059-.014,1.824,1.08,2.303,3.304.472,2.217.436,5.343-.093,9.377" fill="#192843" stroke-width="0"/>
  <path d="M1220.995,194.417l-1.538.043c2.117-5.901,3.333-9.899,3.641-12.002.522-3.533.043-6.194-1.452-7.968-1.488-1.781-3.876-2.625-7.167-2.532-3.633.1-7.846,1.488-12.652,4.148-4.799,2.675-9.97,7.052-15.506,13.153-5.536,6.108-10.879,13.961-16.028,23.581,1.173-4.878,2.346-8.99,3.519-12.323,1.166-3.34,2.647-7.238,4.435-11.694,2.625-6.237,4.062-10.242,4.32-12.016.236-1.545-.064-2.582-.894-3.111-.823-.529-2.375-.758-4.642-.701-4.198.122-7.574.958-10.121,2.518-2.546,1.552-4.57,3.955-6.065,7.188-5.636,12.037-9.555,24.64-11.801,37.8-4.384,3.819-9.148,7.081-14.305,9.763-7.038,3.669-13.11,5.572-18.217,5.708-7.946.222-12.96-2.167-15.048-7.181,13.868-3.576,24.017-8.182,30.44-13.811,6.43-5.629,10.206-12.266,11.336-19.898.966-6.523-.257-11.637-3.662-15.342-3.412-3.705-8.411-5.472-14.991-5.286-7.374.2-14.269,2.325-20.691,6.351-6.416,4.041-11.751,9.391-16.014,16.064-4.27,6.673-6.966,13.818-8.096,21.457-.343,2.353-.494,4.57-.501,6.702-2.818,2.503-5.4,4.613-7.681,6.244-4.17,2.983-8.697,4.535-13.575,4.67-6.015.172-10.07-2.031-12.159-6.601-2.096-4.57-2.296-12.602-.594-24.103.458-3.097,1.209-7.41,2.253-12.953l20.77-.572c12.824-.358,19.798-4.349,20.928-11.98.315-2.103.129-3.533-.551-4.284s-1.931-1.102-3.748-1.051l-19.061.529c16.629-13.132,26.213-28.266,28.752-45.41.916-6.194.315-11.294-1.802-15.313-2.124-4.02-5.564-5.958-10.328-5.829-6.473.179-12.953,3.333-19.454,9.462-6.501,6.13-12.481,14.283-17.945,24.454-5.464,10.178-10.056,21.371-13.782,33.594l-9.699.265c-5.114.143-8.125,3.312-9.041,9.505-.393,2.654-.079,4.577.93,5.758,1.016,1.187,3.219,1.731,6.63,1.631l6.637-.179c-1.08,4.985-1.974,9.913-2.696,14.777-.529,3.583-.858,6.938-1.03,10.106-1.073.386-2.117,1.051-3.14,2.074-6.122,6.223-10.943,10.736-14.462,13.532-3.526,2.797-6.416,4.227-8.69,4.291-3.29.093-4.606-2.074-3.955-6.501.458-3.09,2.475-9.484,6.058-19.168,4.163-11.351,6.566-19.182,7.202-23.495,1.066-7.188-2.096-10.678-9.47-10.478-3.748.107-8.046,1.495-12.903,4.156-4.864,2.675-10.063,7.059-15.592,13.16-5.543,6.101-10.886,13.961-16.035,23.574,1.173-4.878,2.346-8.99,3.519-12.323,1.173-3.34,2.654-7.231,4.442-11.687,2.618-6.244,4.055-10.249,4.32-12.016.229-1.552-.072-2.589-.894-3.118-.83-.522-2.375-.758-4.649-.694-4.198.114-7.574.951-10.113,2.51-2.553,1.552-4.57,3.955-6.072,7.188-5.629,12.037-9.548,24.647-11.801,37.8-4.384,3.819-9.148,7.081-14.297,9.763-7.045,3.669-13.117,5.572-18.224,5.715-7.946.222-12.96-2.174-15.041-7.188,13.861-3.576,24.01-8.182,30.433-13.811,6.43-5.629,10.206-12.259,11.336-19.891.966-6.53-.258-11.644-3.662-15.349-3.412-3.705-8.404-5.464-14.984-5.286-7.381.207-14.276,2.324-20.691,6.358-6.423,4.034-11.758,9.384-16.021,16.057-4.27,6.673-6.959,13.825-8.089,21.457-.372,2.51-.529,4.878-.515,7.131-6.723,2.532-12.946,4.556-18.639,6.036-7.817,2.038-15.413,3.154-22.794,3.362-14.862.408-25.562-2.897-32.092-9.934-6.537-7.031-8.819-17.187-6.859-30.454,1.881-12.724,5.6-23.76,11.172-33.108,5.557-9.355,12.102-16.5,19.612-21.442,7.517-4.949,15.013-7.524,22.508-7.732,11.007-.308,15.764,4.57,14.276,14.634-.293,1.995-1.03,4.656-2.196,7.996-.851,2.668-1.345,4.499-1.495,5.493-.408,2.768.193,4.842,1.795,6.23s3.991,2.038,7.174,1.953c4.535-.129,8.325-2.274,11.372-6.43,3.047-4.163,5.064-9.613,6.065-16.364,1.488-10.063-.494-18.074-5.936-24.039-5.45-5.965-14.305-8.776-26.556-8.433-13.167.365-25.655,4.156-37.456,11.365-11.801,7.209-21.786,17.208-29.947,29.989-8.161,12.788-13.446,27.307-15.849,43.565-1.738,11.723-.594,21.936,3.433,30.633,4.027,8.704,10.678,15.32,19.955,19.855,9.269,4.535,20.663,6.616,34.174,6.237,7.825-.215,16.2-1.244,25.119-3.09,8.919-1.838,17.659-4.592,26.227-8.247.808-.343,1.552-.715,2.289-1.102.393.508.772,1.023,1.209,1.502,5.65,6.122,14.433,9.019,26.349,8.69,8.74-.243,17.251-2.575,25.534-6.988,3.505-1.867,6.695-3.805,9.598-5.793.086,2.003.3,3.748.665,5.178,1.102,4.377,3.812,6.501,8.125,6.38,3.512-.093,6.23-1.08,8.146-2.954,1.917-1.867,3.884-5.414,5.901-10.65,2.696-6.795,5.886-13.275,9.57-19.433,3.676-6.158,7.124-11.129,10.342-14.912,3.211-3.776,5.557-5.686,7.038-5.729,1.245-.036,1.738.837,1.473,2.604-.393,2.653-1.838,7.488-4.342,14.498-2.768,8.003-4.384,13.561-4.842,16.658-.916,6.194-.136,10.879,2.332,14.061,2.468,3.176,6.594,4.692,12.388,4.527,7.145-.2,13.804-2.253,19.983-6.172,6.172-3.912,12.13-8.869,17.881-14.87.164-.165.293-.365.443-.537,3.19,13.561,12.352,20.177,27.565,19.755,7.488-.207,14.405-2.274,20.749-6.194,3.648-2.253,7.181-4.885,10.621-7.825.794,1.287,1.674,2.525,2.711,3.655,5.65,6.122,14.433,9.019,26.349,8.683,8.74-.243,17.244-2.568,25.526-6.981,3.512-1.874,6.694-3.805,9.606-5.801.086,2.003.3,3.755.658,5.178,1.109,4.377,3.812,6.509,8.125,6.387,3.633-.1,6.373-1.059,8.225-2.868,1.852-1.817,3.791-5.393,5.829-10.743,2.696-6.788,5.858-13.268,9.484-19.426,3.619-6.158,7.067-11.129,10.342-14.905,3.269-3.784,5.7-5.693,7.288-5.743.565-.014,1.016.193,1.352.629.329.429.429,1.087.301,1.974-.1.658-.394,1.881-.88,3.655-.594,2.439-1.037,4.713-1.352,6.816-.551,3.755.114,6.716,1.995,8.862,1.888,2.153,4.42,3.183,7.596,3.097,3.969-.114,7.81-1.595,11.508-4.449,3.705-2.854,6.759-6.358,9.184-10.5.93-1.681,1.495-3.233,1.709-4.678.372-2.539-.193-4.642-1.695-6.316-1.509-1.659-3.505-2.46-6.001-2.389M1060.412,148.228c2.961-7.403,5.793-13.21,8.511-17.416,2.711-4.206,4.921-6.337,6.623-6.38,2.489-.072,3.262,3.154,2.296,9.684-.851,5.75-3.469,12.18-7.853,19.297-4.391,7.117-10.349,13.589-17.874,19.419,2.568-8.998,5.336-17.194,8.297-24.604M882.484,221.646c1.001-6.745,3.297-12.538,6.895-17.373,3.598-4.835,7.496-7.31,11.694-7.431,2.046-.057,3.562.536,4.57,1.774,1.001,1.244,1.352,2.911,1.037,5.014-.601,4.091-3.068,7.739-7.381,10.943-4.32,3.204-9.934,5.672-16.865,7.41l.05-.336ZM1100.715,215.595c.994-6.745,3.297-12.538,6.888-17.373,3.605-4.835,7.496-7.317,11.701-7.431,2.038-.057,3.562.536,4.57,1.774,1.001,1.237,1.345,2.911,1.037,5.014-.608,4.091-3.068,7.739-7.381,10.943-4.32,3.204-9.942,5.672-16.865,7.41l.05-.336Z" fill="#192843" stroke-width="0"/>
</svg>