<?xml version="1.0" encoding="utf-8"?>
<!-- Generator: Adobe Illustrator 28.3.0, SVG Export Plug-In . SVG Version: 6.00 Build 0)  -->
<svg version="1.1" id="a" xmlns="http://www.w3.org/2000/svg" xmlns:xlink="http://www.w3.org/1999/xlink" x="0px" y="0px"
	 viewBox="0 0 1366 400" style="enable-background:new 0 0 1366 400;" xml:space="preserve">
<style type="text/css">
	.st0{fill:#192843;}
</style>
<g>
	<path class="st0" d="M446,242.1c14-0.7,25.4-3.9,34.3-9.7c8.9-5.8,13.8-13.6,14.7-23.6c0.5-5.3-0.6-9.7-3.3-13.2
		c-2.7-3.5-6.1-6.2-10.1-8.1c-4.1-1.9-9.5-4-16.4-6.2c-5.7-1.8-10.1-3.4-13.2-4.8c-3.1-1.4-5.7-3.1-7.6-5.3c-2-2.2-2.8-4.9-2.5-8.1
		c0.5-4.8,2.9-8.6,7.4-11.5c4.5-2.9,10.8-4.5,18.8-4.9c5.7-0.3,10.4,0.4,14,2.1c3.6,1.7,5.3,4.3,4.9,7.8c-0.1,0.7-0.4,2.3-0.9,4.8
		c-0.4,1.4-0.7,2.8-0.8,4.4c-0.2,1.9,0.5,3.4,2,4.7c1.5,1.3,3.5,1.8,5.9,1.7c3.4-0.2,6.2-1.7,8.2-4.4c2-2.8,3.3-6.8,3.8-12.2
		c0.5-5.4-0.7-9.9-3.8-13.4c-3-3.5-7.3-6.1-12.8-7.6c-5.5-1.5-11.7-2.1-18.5-1.8c-9.1,0.5-17.2,2.2-24.2,5.1
		c-7,3-12.5,6.9-16.6,11.8c-4,4.9-6.4,10.4-7,16.5c-0.6,5.8,0.6,10.6,3.4,14.4c2.8,3.8,6.4,6.7,10.7,8.7c4.3,2.1,9.9,4.2,16.9,6.3
		c5.4,1.7,9.6,3.2,12.5,4.5c2.9,1.2,5.3,2.8,7.2,4.8c1.9,2,2.6,4.4,2.4,7.2c-0.5,4.6-3,8.4-7.8,11.2c-4.7,2.8-11.1,4.4-19,4.8
		c-7.6,0.4-13.5-0.3-17.6-1.9c-4.1-1.6-5.9-4.4-5.5-8.2c0.1-0.9,0.2-1.8,0.5-2.7c0.2-0.8,0.3-1.4,0.4-1.8c0.4-1.3,0.7-2.8,0.8-4.4
		c0.2-1.9-0.5-3.3-1.9-4.4c-1.5-1.1-3.5-1.6-6-1.5c-3.5,0.2-6.2,1.5-8.2,4.1c-2,2.5-3.2,6.1-3.7,10.8c-0.8,8.8,2.3,15.1,9.3,19
		C423.9,241.1,433.6,242.8,446,242.1"/>
	<path class="st0" d="M880.6,121.4c-2.2-3.2-5.3-4.8-9.4-4.8c-8.3,0.1-15.7,6.1-22.3,17.9c-6.5,11.8-11.7,25.7-15.6,41.6
		c-6.9,0.9-13.3,3.2-19.3,6.9c-6,3.7-10.9,8.5-14.9,14.2c-0.3,0.4-0.5,0.7-0.7,1.1c-4.5,1-8.5,1.6-12,1.8c0.1-6.5-1.7-11.8-5.5-16.2
		c-3.8-4.3-9.2-6.5-16.3-6.3c-5.8,0.1-11.2,1.6-16.4,4.5s-9.4,6.8-12.7,11.9c-1.2,1.9-2.3,3.8-3.2,5.9c-3.4,0.6-6.4,1.1-9.1,1.3
		c0.1-6.5-1.7-11.8-5.5-16.2s-9.2-6.5-16.3-6.3c-5.8,0.1-11.2,1.6-16.4,4.5c-5.1,2.9-9.4,6.8-12.7,11.9c-1.7,2.6-3.1,5.4-4.2,8.4
		c-3.5,0.4-6.7,0.6-9.6,0.7c-1.1,0-2.1,0-2.9-0.1c-2.6-0.1-4.8-0.2-6.7-0.2c-1,0-2.3,0.7-3.7,1.9c-1.5,1.3-2.8,2.8-3.9,4.5
		c-1.1,1.7-1.7,3.1-1.7,4.2c0.8,6.8,1.3,13.2,1.4,19.3c0.2,6.1-0.2,12.4-1,19c-1.2,8.7-3.1,13.1-5.9,13.2c-1.5,0-2-4.5-1.4-13.6
		s1.4-18,2.5-26.6c0.8-6.2,2.2-13.4,4.3-21.7c29.3-23.6,45.2-45.3,47.8-65c0.8-6,0.2-10.7-1.8-14.2c-2-3.5-5.2-5.2-9.6-5.1
		c-8.1,0.1-16.3,5.7-24.5,16.6c-8.2,11-15.3,24.8-21.4,41.4c-4.8,13.2-8.3,26.2-10.7,39c-2.7,2.4-4.9,4.3-6.7,5.7
		c-2.8,2.1-5.1,3.2-6.8,3.2c-1.1,0-2-0.3-2.6-1.1c-0.6-0.7-0.8-1.7-0.6-3c0.5-3.8,2.5-10.5,5.9-20.2c2.3-6.6,3.5-10.9,3.8-12.6
		c0.4-2.9-1.7-4.4-6.3-4.3c-2.1,0-4.2,0.2-6.2,0.6c-0.2-1.8-0.6-3.1-1.2-3.8c-0.6-0.7-1.9-1-4-1c-6.4,0.1-12.8,2-19,5.8
		c-6.2,3.7-11.4,8.6-15.7,14.7c-4.1,5.8-6.6,11.9-7.6,18.3c-2.6,1.9-5.4,3.5-8.4,4.9c-5.7,2.7-10.7,4.1-14.9,4.2
		c-6.5,0.1-10.7-1.8-12.5-5.6c11.3-2.6,19.6-6,24.7-10.2c5.2-4.2,8.1-9.2,8.9-15c0.7-5-0.5-8.8-3.3-11.7c-2.9-2.8-7-4.2-12.4-4.1
		c-6.1,0.1-11.7,1.6-16.9,4.7c-5.2,3-9.5,7-12.8,12.1c-3.4,5-5.4,10.4-6.2,16.2c-1.1,8.3,0.7,14.8,5.5,19.5c4.8,4.7,12.1,7,21.8,6.8
		c7.2-0.1,14.1-1.8,20.8-5.1c2.5-1.2,4.8-2.5,7-3.8c0.5,1,1.1,1.9,1.7,2.8c2.9,3.7,7.3,5.5,13.1,5.5c7.4-0.1,13.9-3.7,19.7-10.9
		c0.9,3.3,2.5,5.8,4.8,7.7c2.3,1.9,5,2.8,8.1,2.7c4-0.1,8.3-1.6,13-4.6c1-0.6,2-1.3,3-2c-1.6,14.3-1.6,25.2-0.1,32.7
		c1.7,8.5,5.9,12.7,12.6,12.6c5.3-0.1,9.9-2.5,13.8-7.4c3.9-4.8,6.4-11.8,7.6-20.8c0.5-4.1,0.8-9.3,0.9-15.7
		c0-6.3-0.2-12.1-0.7-17.3c4.1,0.7,7.3,1,9.5,1c1.9,0,3.6-0.1,5.2-0.4c0.1,2.6,0.6,5.2,1.5,7.5c1.5,4,4.1,7.2,7.7,9.6
		c3.6,2.4,8.3,3.5,13.9,3.4c6.6-0.1,12.8-2.3,18.6-6.6c5.8-4.3,10-10,12.7-17.1c3-0.2,5.8-0.5,8.6-0.9c-0.2,3.8,0.3,7.4,1.5,10.7
		c1.5,4,4.1,7.2,7.7,9.6c3.6,2.4,8.3,3.5,13.8,3.4c6.6-0.1,12.8-2.3,18.6-6.6c5.8-4.3,10-10,12.7-17.1c3.1-0.2,6.1-0.5,8.9-1
		c-0.2,1.1-0.5,2.3-0.6,3.5c-0.8,6.1,0.4,11.1,3.6,14.8c3.2,3.8,7.6,5.6,13.3,5.5c3.7-0.1,7.1-0.8,10.1-2.2c3-1.4,6.6-4.1,10.6-8.1
		l0.1,0.5c0.8,3.9,1.8,6.6,3.2,8c1.4,1.4,3.5,2.1,6.4,2c5.1-0.1,7.9-2,8.4-5.8c0.2-1.2,0.1-2.3-0.1-3.4c-1.1-6.7-1.7-13.5-1.8-20.3
		c10-13.2,18.4-26,25-38.4s10.6-23.2,11.8-32.5C883.5,129.6,882.8,124.7,880.6,121.4 M654.3,160.3c3.5-8.5,6.9-15.3,10-20.4
		c3.1-5.2,5.6-7.7,7.2-7.8c2.3,0,3.2,2.5,2.5,7.6c-1.1,7.2-4.1,15-9.2,23.3c-5.1,8.3-11.9,16.4-20.4,24.1
		C647.5,177.8,650.8,168.8,654.3,160.3 M515.8,212.4c0.7-5.1,2.4-9.5,5.3-13.1c2.9-3.6,6-5.5,9.5-5.6c1.7,0,2.9,0.4,3.8,1.4
		c0.8,1,1.2,2.2,1,3.8c-0.4,3.1-2.4,5.9-5.8,8.3c-3.5,2.4-8,4.2-13.7,5.5L515.8,212.4L515.8,212.4z M586.9,215.1
		c-1.3,3.6-3.1,6.5-5.2,8.8c-2.2,2.2-4.3,3.3-6.3,3.4c-2.1,0-3.6-0.6-4.6-1.8c-1-1.2-1.3-3.2-1-5.8c0.6-4.7,2.2-9.2,4.7-13.4
		c2.5-4.2,5.6-7.6,9.2-10.3c3.6-2.6,7.4-4,11.4-4.1L586.9,215.1L586.9,215.1z M700.3,221.4c-2.5,2.2-5.2,3.3-8.2,3.4
		c-2.7,0-4.9-1.1-6.6-3.5c-1.7-2.4-2.2-5.9-1.6-10.5c0.8-5.9,2.6-10.4,5.5-13.7c2.9-3.3,6.2-4.9,9.9-5l0.7,0c-0.5,1.4-0.8,2.7-1,4
		c-0.4,3.2-0.1,6.2,1.1,9c1.2,2.8,3.1,5.1,5.7,6.8C704.7,216,702.8,219.2,700.3,221.4 M763.4,220.4c-2.5,2.2-5.2,3.3-8.2,3.4
		c-2.7,0-4.9-1.1-6.6-3.5c-1.7-2.4-2.2-5.9-1.6-10.5c0.8-5.9,2.6-10.4,5.5-13.7c2.9-3.3,6.2-4.9,9.9-5l0.7,0c-0.5,1.4-0.8,2.7-1,4
		c-0.4,3.2-0.1,6.2,1.1,9c1.2,2.8,3.1,5.1,5.7,6.8C767.8,215,765.9,218.2,763.4,220.4 M829.7,195.2c-0.9,6.5-1.2,12.9-1.1,19
		c-3.2,3.7-5.7,6.1-7.6,7.4c-1.9,1.3-3.8,1.9-5.6,2c-4.7,0.1-6.6-3-5.8-9.1c0.8-5.8,3.1-11.1,7.1-15.9c4-4.8,8.6-8,13.9-9.4
		C830.4,190.6,830.1,192.6,829.7,195.2 M869.8,139c-1.7,12.6-9,29-22,49.3c2.8-14.6,6.2-28.1,10.2-40.6c4-12.5,7.4-18.7,10.1-18.7
		c0.8,0,1.4,0.9,1.8,2.6C870.3,133.4,870.2,135.9,869.8,139"/>
	<path class="st0" d="M1264,191.4l-1.2,0c1.7-4.7,2.6-7.8,2.9-9.5c0.4-2.8,0-4.9-1.1-6.3c-1.2-1.4-3.1-2.1-5.7-2
		c-2.9,0.1-6.2,1.2-10,3.3c-3.8,2.1-7.9,5.6-12.3,10.4c-4.4,4.8-8.6,11-12.7,18.6c0.9-3.9,1.9-7.1,2.8-9.7c0.9-2.6,2.1-5.7,3.5-9.2
		c2.1-4.9,3.2-8.1,3.4-9.5c0.2-1.2-0.1-2-0.7-2.5c-0.7-0.4-1.9-0.6-3.7-0.6c-3.3,0.1-6,0.8-8,2c-2,1.2-3.6,3.1-4.8,5.7
		c-4.5,9.5-7.6,19.5-9.3,29.9c-3.5,3-7.2,5.6-11.3,7.7c-5.6,2.9-10.4,4.4-14.4,4.5c-6.3,0.2-10.2-1.7-11.9-5.7
		c11-2.8,19-6.5,24.1-10.9c5.1-4.4,8.1-9.7,9-15.7c0.8-5.2-0.2-9.2-2.9-12.1c-2.7-2.9-6.6-4.3-11.8-4.2c-5.8,0.2-11.3,1.8-16.4,5
		c-5.1,3.2-9.3,7.4-12.7,12.7c-3.4,5.3-5.5,10.9-6.4,17c-0.3,1.9-0.4,3.6-0.4,5.3c-2.2,2-4.3,3.6-6.1,4.9c-3.3,2.4-6.9,3.6-10.7,3.7
		c-4.8,0.1-8-1.6-9.6-5.2c-1.7-3.6-1.8-10-0.5-19.1c0.4-2.4,1-5.9,1.8-10.2l16.4-0.5c10.1-0.3,15.6-3.4,16.5-9.5
		c0.2-1.7,0.1-2.8-0.4-3.4s-1.5-0.9-3-0.8l-15.1,0.4c13.1-10.4,20.7-22.3,22.7-35.9c0.7-4.9,0.2-8.9-1.4-12.1
		c-1.7-3.2-4.4-4.7-8.2-4.6c-5.1,0.1-10.2,2.6-15.4,7.5c-5.1,4.8-9.9,11.3-14.2,19.3c-4.3,8-7.9,16.9-10.9,26.6l-7.7,0.2
		c-4,0.1-6.4,2.6-7.1,7.5c-0.3,2.1-0.1,3.6,0.7,4.6c0.8,0.9,2.5,1.4,5.2,1.3l5.2-0.1c-0.9,3.9-1.6,7.8-2.1,11.7
		c-0.4,2.8-0.7,5.5-0.8,8c-0.8,0.3-1.7,0.8-2.5,1.6c-4.8,4.9-8.6,8.5-11.4,10.7c-2.8,2.2-5.1,3.3-6.9,3.4c-2.6,0.1-3.6-1.6-3.1-5.1
		c0.4-2.4,2-7.5,4.8-15.1c3.3-9,5.2-15.2,5.7-18.6c0.8-5.7-1.7-8.4-7.5-8.3c-3,0.1-6.4,1.2-10.2,3.3c-3.8,2.1-8,5.6-12.3,10.4
		c-4.4,4.8-8.6,11-12.7,18.6c0.9-3.9,1.9-7.1,2.8-9.7c0.9-2.6,2.1-5.7,3.5-9.2c2.1-4.9,3.2-8.1,3.4-9.5c0.2-1.2-0.1-2-0.7-2.5
		c-0.7-0.4-1.9-0.6-3.7-0.5c-3.3,0.1-6,0.8-8,2c-2,1.2-3.6,3.1-4.8,5.7c-4.4,9.5-7.5,19.5-9.3,29.9c-3.5,3-7.2,5.6-11.3,7.7
		c-5.6,2.9-10.4,4.4-14.4,4.5c-6.3,0.2-10.2-1.7-11.9-5.7c11-2.8,19-6.5,24.1-10.9c5.1-4.4,8.1-9.7,9-15.7c0.8-5.2-0.2-9.2-2.9-12.1
		c-2.7-2.9-6.6-4.3-11.8-4.2c-5.8,0.2-11.3,1.8-16.4,5c-5.1,3.2-9.3,7.4-12.7,12.7c-3.4,5.3-5.5,10.9-6.4,17c-0.3,2-0.4,3.9-0.4,5.6
		c-5.3,2-10.2,3.6-14.7,4.8c-6.2,1.6-12.2,2.5-18,2.7c-11.7,0.3-20.2-2.3-25.4-7.9c-5.2-5.6-7-13.6-5.4-24.1
		c1.5-10.1,4.4-18.8,8.8-26.2c4.4-7.4,9.6-13,15.5-16.9c5.9-3.9,11.9-5.9,17.8-6.1c8.7-0.2,12.5,3.6,11.3,11.6
		c-0.2,1.6-0.8,3.7-1.7,6.3c-0.7,2.1-1.1,3.6-1.2,4.3c-0.3,2.2,0.2,3.8,1.4,4.9c1.3,1.1,3.2,1.6,5.7,1.5c3.6-0.1,6.6-1.8,9-5.1
		c2.4-3.3,4-7.6,4.8-12.9c1.2-8-0.4-14.3-4.7-19c-4.3-4.7-11.3-6.9-21-6.7c-10.4,0.3-20.3,3.3-29.6,9c-9.3,5.7-17.2,13.6-23.7,23.7
		c-6.5,10.1-10.6,21.6-12.5,34.4c-1.4,9.3-0.5,17.3,2.7,24.2c3.2,6.9,8.4,12.1,15.8,15.7c7.3,3.6,16.3,5.2,27,4.9
		c6.2-0.2,12.8-1,19.9-2.4c7-1.5,14-3.6,20.7-6.5c0.6-0.3,1.2-0.6,1.8-0.9c0.3,0.4,0.6,0.8,1,1.2c4.5,4.8,11.4,7.1,20.8,6.9
		c6.9-0.2,13.6-2,20.2-5.5c2.8-1.5,5.3-3,7.6-4.6c0.1,1.6,0.2,3,0.5,4.1c0.9,3.5,3,5.1,6.4,5c2.8-0.1,4.9-0.9,6.4-2.3
		c1.5-1.5,3.1-4.3,4.7-8.4c2.1-5.4,4.7-10.5,7.6-15.4c2.9-4.9,5.6-8.8,8.2-11.8c2.5-3,4.4-4.5,5.6-4.5c1,0,1.4,0.7,1.2,2.1
		c-0.3,2.1-1.5,5.9-3.4,11.5c-2.2,6.3-3.5,10.7-3.8,13.2c-0.7,4.9-0.1,8.6,1.8,11.1c2,2.5,5.2,3.7,9.8,3.6
		c5.6-0.2,10.9-1.8,15.8-4.9c4.9-3.1,9.6-7,14.1-11.8c0.1-0.1,0.2-0.3,0.4-0.4c2.5,10.7,9.8,15.9,21.8,15.6
		c5.9-0.2,11.4-1.8,16.4-4.9c2.9-1.8,5.7-3.9,8.4-6.2c0.6,1,1.3,2,2.1,2.9c4.5,4.8,11.4,7.1,20.8,6.9c6.9-0.2,13.6-2,20.2-5.5
		c2.8-1.5,5.3-3,7.6-4.6c0.1,1.6,0.2,3,0.5,4.1c0.9,3.5,3,5.1,6.4,5c2.9-0.1,5-0.8,6.5-2.3c1.5-1.4,3-4.3,4.6-8.5
		c2.1-5.4,4.6-10.5,7.5-15.4c2.9-4.9,5.6-8.8,8.2-11.8c2.6-3,4.5-4.5,5.8-4.5c0.4,0,0.8,0.2,1.1,0.5c0.3,0.3,0.3,0.9,0.2,1.6
		c-0.1,0.5-0.3,1.5-0.7,2.9c-0.5,1.9-0.8,3.7-1.1,5.4c-0.4,3,0.1,5.3,1.6,7c1.5,1.7,3.5,2.5,6,2.4c3.1-0.1,6.2-1.3,9.1-3.5
		c2.9-2.3,5.3-5,7.3-8.3c0.7-1.3,1.2-2.6,1.4-3.7c0.3-2-0.2-3.7-1.3-5C1267.5,192,1266,191.3,1264,191.4 M1137.1,154.9
		c2.3-5.9,4.6-10.4,6.7-13.8c2.1-3.3,3.9-5,5.2-5c2-0.1,2.6,2.5,1.8,7.7c-0.7,4.5-2.7,9.6-6.2,15.3c-3.5,5.6-8.2,10.7-14.1,15.3
		C1132.5,167.2,1134.7,160.7,1137.1,154.9 M996.4,212.9c0.8-5.3,2.6-9.9,5.4-13.7c2.8-3.8,5.9-5.8,9.2-5.9c1.6,0,2.8,0.4,3.6,1.4
		c0.8,1,1.1,2.3,0.8,4c-0.5,3.2-2.4,6.1-5.8,8.6c-3.4,2.5-7.9,4.5-13.3,5.9L996.4,212.9L996.4,212.9z M1168.9,208.1
		c0.8-5.3,2.6-9.9,5.4-13.7c2.8-3.8,5.9-5.8,9.2-5.9c1.6,0,2.8,0.4,3.6,1.4c0.8,1,1.1,2.3,0.8,4c-0.5,3.2-2.4,6.1-5.8,8.6
		c-3.4,2.5-7.9,4.5-13.3,5.9L1168.9,208.1L1168.9,208.1z"/>
</g>
<g>
	<path class="st0" d="M292.2,136.8c-3.6,0-6.5,2.9-6.5,6.5c0,3.6,2.9,6.5,6.5,6.5s6.5-2.9,6.5-6.5
		C298.7,139.7,295.8,136.8,292.2,136.8"/>
	<path class="st0" d="M338.5,170.4c-0.3-0.7-6.9-18.4-23-36c-9.1-10-22.5-21.2-40.6-28.2c-7-6-47.8-40.1-71-33.1
		c-4.8,1.4-11.1,5.3-14,15.6c-2.4,8.6-15.4,25.8-20.2,31.7l0.1,0.1c-9.1,6.5-17.3,14.4-24.3,23.6c-20.7,27.2-27.5,62.5-18.7,96.6
		c11.7,45,51.6,77.7,99.5,81.6c3.7,0.3,7.3,0.4,10.9,0.4c27.6,0,51.4-8.8,69.3-25.8c6-5.7,15.4-16.3,15.8-16.7
		c1.2-1.3,1.5-3.2,1-4.8c-0.6-1.7-2-2.9-3.8-3.2c-25-4.3-45.9-15.7-62.3-33.9C245,224.6,240.1,212,240,211.9
		c-0.7-1.9-2.4-3.1-4.4-3.1c-2,0-3.8,1.1-4.6,2.9c-17.7,40.3-61.4,55.5-76.1,59.6c-1-7.8-2.3-23.8,0.7-40.8
		c3.9-21.9,13.3-38.3,28.1-49.1l2.1,18c0.3,2.5,2.4,4.3,4.8,4.3c0.1,0,0.3,0,0.5,0c9.6-0.9,19-8.3,27.9-21.9
		c3.8-5.8,6.6-11.4,8.3-15.1c16.4-1,31.7,2.8,45.7,11.6c15.2,9.5,23.2,21.5,23.3,21.6c1.1,1.7,3.2,2.6,5.2,2.1
		c2-0.5,3.5-2.2,3.7-4.3c2-21.7,7.6-21.4,18.6-20.8c2.6,0.1,5.2,0.3,8,0.2l2.4-0.1c1.6-0.1,3-0.9,3.9-2.2
		C338.9,173.5,339,171.8,338.5,170.4 M192.7,303.8c-4.9-2.2-9.5-4.7-14-7.5v-23.2c4.4-2,9.1-4.3,14-7V303.8z M253.6,311.7
		c-4.6,0.7-9.3,1.1-14.2,1.2l0.7-80.5c3.4,5,7.8,10.7,13.5,16.4V311.7z M291.2,296.8c-4.4,3.1-9,5.8-14,8v-37.6
		c4.3,2.5,8.9,4.8,14,6.9V296.8L291.2,296.8z M299.8,289.8c-1.2,1.1-2.4,2.2-3.7,3.3V276c4.2,1.5,8.6,2.9,13.2,4
		C306.3,283.2,302.6,287.1,299.8,289.8 M272.4,264.2v42.7c-4.4,1.7-9.1,3-14,4v-57.4C262.6,257.1,267.2,260.8,272.4,264.2
		 M230.4,232.4l-0.7,80.3c-0.9,0-1.8-0.1-2.7-0.2c-3.6-0.3-7.2-0.8-10.7-1.4v-62.5C221.4,243.8,226.2,238.4,230.4,232.4
		 M211.5,252.9v57.2c-4.8-1.1-9.4-2.5-14-4.3v-42.7C202.3,260.1,207,256.7,211.5,252.9 M173.9,275.1V293
		c-5.3-3.8-10.1-8.1-14.6-12.8C163.2,279,168.2,277.4,173.9,275.1 M199.2,91.3c1.8-6.5,5.1-8.2,7.4-8.8c7.5-2.3,20.9,2.4,37.7,13.2
		c2.4,1.5,4.7,3.1,6.8,4.6c-5.3-0.7-10.9-1-16.7-0.9c-15.6,0.3-30.6,3.6-44.3,9.6C194.1,102.8,197.8,96.3,199.2,91.3 M210.7,176.5
		c-5.4,8.3-10.8,13.7-16,16.1l-2-16.9c3.8-2,8-3.6,12.4-5c3.5-1.1,7-1.9,10.4-2.6C214.3,170.8,212.6,173.7,210.7,176.5 M202.3,161.5
		C171.5,171,152,194.3,146,229c-1.9,10.9-2.2,21.3-1.8,29.6c-3.4-6.4-6-13.3-7.9-20.5c-0.9-3.3-1.6-6.6-2.1-9.9
		c0.6-3.4,1.1-6.3,1.2-8.1c0.3-5.7-1.8-7.4-2-12.1c-0.3-4.7,6.3-9.5,6.3-17s2.6-12.3,2.6-12.3c1.7-3.7,5.5-5.9,8.3-8.9
		c6-6.5,6.9-16.9,13.7-22.6c10.2-8.5,26.5-1.3,38.5-7.1c5.7-2.8,9.6-8.2,15.1-11.3c6.1-3.5,13.9-3.8,20.3-0.7c3.8,1.8,7,4.7,11,6.3
		c1.9,0.8,4,1.1,6,0.9c-4.4,8.6-4.7,17.8-4.4,23.5C237.3,155.9,221.1,155.7,202.3,161.5 M324.3,167.1c-12.6-0.7-22.7,0.4-27.1,18.6
		c-4.3-4.6-10.5-10.3-18.7-15.5c-4.9-3.1-10.9-6.2-17.8-8.6c-0.5-3.2-1.8-16.5,5.6-26c5-6.3,13.1-9.8,24.2-10.4
		c6.2,4.3,12.1,9.4,17.5,15.3c9.2,10,15.1,20.2,18.3,26.6C325.7,167.2,325,167.2,324.3,167.1"/>
</g>
</svg>
