<?xml version="1.0" encoding="UTF-8"?>
<svg id="a" data-name="Layer 1" xmlns="http://www.w3.org/2000/svg" width="700" height="700" viewBox="0 0 700 700">
  <path d="M463.191,238.043c-6.658,0-12.07,5.412-12.07,12.07s5.412,12.078,12.07,12.078,12.07-5.42,12.07-12.078-5.412-12.07-12.07-12.07" fill="#192843" stroke-width="0"/>
  <path d="M548.87,300.065c-.51-1.372-12.755-33.959-42.465-66.546-16.879-18.518-41.579-39.136-75.128-52.059-12.889-11.141-88.326-74.074-131.327-61.218-8.883,2.66-20.576,9.803-25.854,28.765-4.441,15.967-28.413,47.668-37.279,58.533l.243.201c-16.854,12.045-32.018,26.665-44.916,43.628-38.325,50.37-50.922,115.452-34.561,178.543,21.538,83.099,95.428,143.681,183.846,150.749,6.842.552,13.55.82,20.166.82,51.097,0,95.093-16.277,128.115-47.626,11.083-10.514,28.472-30.095,29.208-30.923,2.166-2.442,2.844-5.863,1.765-8.941-1.087-3.078-3.747-5.336-6.967-5.888-46.204-7.921-84.931-28.982-115.092-62.598-22.667-25.252-31.742-48.538-31.826-48.747-1.296-3.421-4.525-5.713-8.18-5.805-3.647-.092-6.992,2.032-8.456,5.378-32.654,74.433-113.411,102.562-140.611,110.107-1.874-14.453-4.299-43.904,1.23-75.379,7.118-40.5,24.516-70.845,51.867-90.71l3.873,33.29c.535,4.575,4.408,7.954,8.925,7.954.276,0,.552-.008.836-.033,17.833-1.656,35.197-15.281,51.607-40.5,6.942-10.656,12.162-21.061,15.307-27.828,30.27-1.899,58.566,5.236,84.479,21.396,28.129,17.54,42.875,39.713,43.009,39.914,2.091,3.212,5.972,4.751,9.694,3.822,3.714-.912,6.441-4.09,6.792-7.896,3.714-40.165,13.985-39.588,34.427-38.459,4.717.268,9.585.535,14.755.335l4.441-.176c2.877-.109,5.52-1.598,7.118-3.99,1.598-2.392,1.957-5.412.962-8.113M279.391,546.652c-8.992-3.99-17.607-8.64-25.787-13.893v-42.892c8.172-3.605,16.879-7.904,25.787-13.023v69.808ZM391.949,561.264c-8.44,1.271-17.18,1.966-26.163,2.141l1.296-148.875c6.265,9.293,14.462,19.815,24.867,30.404v116.33ZM461.514,533.796c-8.046,5.746-16.653,10.698-25.795,14.796v-69.591c7.929,4.625,16.519,8.925,25.795,12.755v42.039ZM477.331,520.815c-2.217,2.099-4.5,4.124-6.825,6.072v-31.65c7.703,2.802,15.825,5.295,24.44,7.361-5.637,6.106-12.454,13.324-17.615,18.217M426.727,473.431v78.875c-8.222,3.095-16.829,5.554-25.787,7.369v-106.126c7.586,6.85,16.151,13.584,25.787,19.882M349.099,414.672l-1.288,148.357c-1.648-.092-3.279-.159-4.943-.293-6.666-.527-13.232-1.422-19.706-2.601v-115.535c9.293-8.766,18.084-18.702,25.938-29.927M314.17,452.621v105.649c-8.841-2.049-17.456-4.692-25.787-7.896v-78.959c8.649-5.453,17.347-11.685,25.787-18.794M244.613,493.656v32.997c-9.728-7.059-18.744-14.997-26.899-23.738,7.034-2.007,16.327-5.019,26.899-9.259M291.427,153.825c3.329-11.986,9.393-15.072,13.667-16.352,13.943-4.165,38.701,4.5,69.733,24.407,4.391,2.819,8.632,5.688,12.655,8.506-9.769-1.28-20.057-1.907-30.914-1.723-28.79.477-56.534,6.608-81.919,17.707,7.361-11.2,14.186-23.236,16.779-32.545M312.664,311.483c-9.962,15.265-20.007,25.352-29.484,29.743l-3.63-31.19c7.11-3.605,14.729-6.666,22.868-9.167,6.507-1.999,12.94-3.58,19.296-4.826-2.518,4.768-5.554,10.096-9.05,15.44M297.132,283.68c-57.027,17.532-93.052,60.683-104.16,124.786-3.488,20.158-4.006,39.287-3.413,54.744-6.206-11.869-11.124-24.524-14.57-37.815-1.598-6.139-2.877-12.262-3.889-18.376,1.129-6.24,2.116-11.676,2.3-14.98.585-10.505-3.304-13.625-3.789-22.282-.477-8.665,11.559-17.515,11.559-31.466s4.893-22.784,4.893-22.784c3.162-6.825,10.221-10.832,15.323-16.361,11.133-12.078,12.747-31.299,25.385-41.796,18.878-15.666,49.065-2.384,71.113-13.149,10.489-5.119,17.824-15.123,27.962-20.902,11.275-6.449,25.728-6.959,37.438-1.338,7.043,3.379,13.031,8.774,20.275,11.727,3.429,1.397,7.386,2.041,11.091,1.664-8.071,15.817-8.766,32.872-8.163,43.352-24.75-5.387-54.677-5.671-89.355,4.977M522.598,294.06c-23.202-1.313-42.039.744-50.127,34.344-7.963-8.506-19.497-19.087-34.595-28.597-9.084-5.729-20.057-11.392-32.813-15.859-.853-5.913-3.362-30.58,10.439-47.986,9.209-11.618,24.273-18.05,44.74-19.146,11.501,7.921,22.333,17.331,32.437,28.346,16.988,18.51,27.928,37.33,33.858,49.107-1.322-.067-2.635-.134-3.94-.209" fill="#192843" stroke-width="0"/>
</svg>